<svg xmlns="http://www.w3.org/2000/svg" xmlns:xlink="http://www.w3.org/1999/xlink" width="2358pt" height="586pt" viewBox="0.00 0.00 2358.01 586.00">
<g id="graph0" class="graph" transform="scale(1 1) rotate(0) translate(4 582)">
<title>ManufacturingWorkflow</title>
<polygon fill="white" stroke="none" points="-4,4 -4,-582 2354.01,-582 2354.01,4 -4,4"/>
<!-- CustomerMaster -->
<g id="node1" class="node">
<title>CustomerMaster</title>
<polygon fill="white" stroke="black" points="0,-113.5 0,-181.5 189.83,-181.5 189.83,-113.5 0,-113.5"/>
<text text-anchor="middle" x="44.95" y="-144.5" font-family="Helvetica,sans-Serif" font-size="10.00">CustomerMaster</text>
<polyline fill="none" stroke="black" points="89.91,-113.5 89.91,-181.5"/>
<text text-anchor="start" x="97.91" y="-168.5" font-family="Helvetica,sans-Serif" font-size="10.00">PK customer_id:int</text>
<text text-anchor="start" x="97.91" y="-156.5" font-family="Helvetica,sans-Serif" font-size="10.00">name:string</text>
<text text-anchor="start" x="97.91" y="-144.5" font-family="Helvetica,sans-Serif" font-size="10.00">address:string</text>
<text text-anchor="start" x="97.91" y="-132.5" font-family="Helvetica,sans-Serif" font-size="10.00">contact_no:string</text>
<text text-anchor="start" x="97.91" y="-120.5" font-family="Helvetica,sans-Serif" font-size="10.00">email:string</text>
</g>
<!-- Enquiry -->
<g id="node9" class="node">
<title>Enquiry</title>
<polygon fill="white" stroke="black" points="246.83,-119.5 246.83,-175.5 396.1,-175.5 396.1,-119.5 246.83,-119.5"/>
<text text-anchor="middle" x="271.79" y="-144.5" font-family="Helvetica,sans-Serif" font-size="10.00">Enquiry</text>
<polyline fill="none" stroke="black" points="296.74,-119.5 296.74,-175.5"/>
<text text-anchor="start" x="304.74" y="-162.5" font-family="Helvetica,sans-Serif" font-size="10.00">PK enquiry_id:int</text>
<text text-anchor="start" x="304.74" y="-150.5" font-family="Helvetica,sans-Serif" font-size="10.00">FK customer_id:int</text>
<text text-anchor="start" x="304.74" y="-138.5" font-family="Helvetica,sans-Serif" font-size="10.00">date:date</text>
<text text-anchor="start" x="304.74" y="-126.5" font-family="Helvetica,sans-Serif" font-size="10.00">details:text</text>
</g>
<!-- CustomerMaster&#45;&gt;Enquiry -->
<g id="edge1" class="edge">
<title>CustomerMaster-&gt;Enquiry</title>
<path fill="none" stroke="black" d="M190.17,-147.5C205.19,-147.5 220.64,-147.5 235.43,-147.5"/>
<polygon fill="black" stroke="black" points="235.07,-151 245.07,-147.5 235.07,-144 235.07,-151"/>
<text text-anchor="middle" x="218.33" y="-151.7" font-family="Times,serif" font-size="14.00">1..*</text>
</g>
<!-- DepartmentMaster -->
<g id="node2" class="node">
<title>DepartmentMaster</title>
<polygon fill="white" stroke="black" points="734.41,-150.5 734.41,-194.5 926.49,-194.5 926.49,-150.5 734.41,-150.5"/>
<text text-anchor="middle" x="783.82" y="-169.5" font-family="Helvetica,sans-Serif" font-size="10.00">DepartmentMaster</text>
<polyline fill="none" stroke="black" points="833.22,-150.5 833.22,-194.5"/>
<text text-anchor="start" x="841.22" y="-181.5" font-family="Helvetica,sans-Serif" font-size="10.00">PK dept_id:int</text>
<text text-anchor="start" x="841.22" y="-169.5" font-family="Helvetica,sans-Serif" font-size="10.00">dept_name:string</text>
<text text-anchor="start" x="841.22" y="-157.5" font-family="Helvetica,sans-Serif" font-size="10.00">description:string</text>
</g>
<!-- SubDeptTask -->
<g id="node12" class="node">
<title>SubDeptTask</title>
<polygon fill="white" stroke="black" points="997.14,-110.5 997.14,-178.5 1174.2,-178.5 1174.2,-110.5 997.14,-110.5"/>
<text text-anchor="middle" x="1035.43" y="-141.5" font-family="Helvetica,sans-Serif" font-size="10.00">SubDeptTask</text>
<polyline fill="none" stroke="black" points="1073.72,-110.5 1073.72,-178.5"/>
<text text-anchor="start" x="1081.72" y="-165.5" font-family="Helvetica,sans-Serif" font-size="10.00">PK task_id:int</text>
<text text-anchor="start" x="1081.72" y="-153.5" font-family="Helvetica,sans-Serif" font-size="10.00">FK assembly_id:int</text>
<text text-anchor="start" x="1081.72" y="-141.5" font-family="Helvetica,sans-Serif" font-size="10.00">FK dept_id:int</text>
<text text-anchor="start" x="1081.72" y="-129.5" font-family="Helvetica,sans-Serif" font-size="10.00">task_details:text</text>
<text text-anchor="start" x="1081.72" y="-117.5" font-family="Helvetica,sans-Serif" font-size="10.00">telemetry_req:text</text>
</g>
<!-- DepartmentMaster&#45;&gt;SubDeptTask -->
<g id="edge5" class="edge">
<title>DepartmentMaster-&gt;SubDeptTask</title>
<path fill="none" stroke="black" d="M926.82,-161.95C946.04,-159.83 966.29,-157.59 985.63,-155.45"/>
<polygon fill="black" stroke="black" points="985.84,-158.95 995.39,-154.37 985.07,-151.99 985.84,-158.95"/>
</g>
<!-- StockIndent -->
<g id="node13" class="node">
<title>StockIndent</title>
<polygon fill="white" stroke="black" points="1008.24,-23.5 1008.24,-91.5 1163.1,-91.5 1163.1,-23.5 1008.24,-23.5"/>
<text text-anchor="middle" x="1042.65" y="-54.5" font-family="Helvetica,sans-Serif" font-size="10.00">StockIndent</text>
<polyline fill="none" stroke="black" points="1077.05,-23.5 1077.05,-91.5"/>
<text text-anchor="start" x="1085.05" y="-78.5" font-family="Helvetica,sans-Serif" font-size="10.00">PK indent_id:int</text>
<text text-anchor="start" x="1085.05" y="-66.5" font-family="Helvetica,sans-Serif" font-size="10.00">FK dept_id:int</text>
<text text-anchor="start" x="1085.05" y="-54.5" font-family="Helvetica,sans-Serif" font-size="10.00">FK item_id:int</text>
<text text-anchor="start" x="1085.05" y="-42.5" font-family="Helvetica,sans-Serif" font-size="10.00">quantity:int</text>
<text text-anchor="start" x="1085.05" y="-30.5" font-family="Helvetica,sans-Serif" font-size="10.00">status:string</text>
</g>
<!-- DepartmentMaster&#45;&gt;StockIndent -->
<g id="edge6" class="edge">
<title>DepartmentMaster-&gt;StockIndent</title>
<path fill="none" stroke="black" d="M907.24,-150.06C913.86,-147.42 920.36,-144.57 926.49,-141.5 954.17,-127.66 956.5,-116.64 983.49,-101.5 988.1,-98.91 992.9,-96.37 997.78,-93.9"/>
<polygon fill="black" stroke="black" points="999.12,-97.14 1006.54,-89.59 996.03,-90.86 999.12,-97.14"/>
</g>
<!-- StockCategoryMaster -->
<g id="node3" class="node">
<title>StockCategoryMaster</title>
<polygon fill="white" stroke="black" points="453.1,-10.5 453.1,-46.5 677.41,-46.5 677.41,-10.5 453.1,-10.5"/>
<text text-anchor="middle" x="509.18" y="-25.5" font-family="Helvetica,sans-Serif" font-size="10.00">StockCategoryMaster</text>
<polyline fill="none" stroke="black" points="565.25,-10.5 565.25,-46.5"/>
<text text-anchor="start" x="573.25" y="-31.5" font-family="Helvetica,sans-Serif" font-size="10.00">PK category_id:int</text>
<text text-anchor="start" x="573.25" y="-19.5" font-family="Helvetica,sans-Serif" font-size="10.00">category_name:string</text>
</g>
<!-- StockItemMaster -->
<g id="node4" class="node">
<title>StockItemMaster</title>
<polygon fill="white" stroke="black" points="736.64,-0.5 736.64,-56.5 924.26,-56.5 924.26,-0.5 736.64,-0.5"/>
<text text-anchor="middle" x="782.15" y="-25.5" font-family="Helvetica,sans-Serif" font-size="10.00">StockItemMaster</text>
<polyline fill="none" stroke="black" points="827.66,-0.5 827.66,-56.5"/>
<text text-anchor="start" x="835.66" y="-43.5" font-family="Helvetica,sans-Serif" font-size="10.00">PK item_id:int</text>
<text text-anchor="start" x="835.66" y="-31.5" font-family="Helvetica,sans-Serif" font-size="10.00">item_name:string</text>
<text text-anchor="start" x="835.66" y="-19.5" font-family="Helvetica,sans-Serif" font-size="10.00">FK category_id:int</text>
<text text-anchor="start" x="835.66" y="-7.5" font-family="Helvetica,sans-Serif" font-size="10.00">unit:string</text>
</g>
<!-- StockCategoryMaster&#45;&gt;StockItemMaster -->
<g id="edge22" class="edge">
<title>StockCategoryMaster-&gt;StockItemMaster</title>
<path fill="none" stroke="black" d="M677.88,-28.5C693.55,-28.5 709.6,-28.5 725.13,-28.5"/>
<polygon fill="black" stroke="black" points="724.82,-32 734.82,-28.5 724.82,-25 724.82,-32"/>
</g>
<!-- StockItemMaster&#45;&gt;StockIndent -->
<g id="edge7" class="edge">
<title>StockItemMaster-&gt;StockIndent</title>
<path fill="none" stroke="black" d="M924.66,-39.17C948.17,-41.87 973.34,-44.75 996.59,-47.41"/>
<polygon fill="black" stroke="black" points="995.99,-50.87 1006.33,-48.53 996.79,-43.91 995.99,-50.87"/>
</g>
<!-- VendorMaster -->
<g id="node5" class="node">
<title>VendorMaster</title>
<polygon fill="white" stroke="black" points="1504,-342.5 1504,-398.5 1687.19,-398.5 1687.19,-342.5 1504,-342.5"/>
<text text-anchor="middle" x="1543.4" y="-367.5" font-family="Helvetica,sans-Serif" font-size="10.00">VendorMaster</text>
<polyline fill="none" stroke="black" points="1582.81,-342.5 1582.81,-398.5"/>
<text text-anchor="start" x="1590.81" y="-385.5" font-family="Helvetica,sans-Serif" font-size="10.00">PK vendor_id:int</text>
<text text-anchor="start" x="1590.81" y="-373.5" font-family="Helvetica,sans-Serif" font-size="10.00">vendor_name:string</text>
<text text-anchor="start" x="1590.81" y="-361.5" font-family="Helvetica,sans-Serif" font-size="10.00">contact:string</text>
<text text-anchor="start" x="1590.81" y="-349.5" font-family="Helvetica,sans-Serif" font-size="10.00">address:string</text>
</g>
<!-- PurchaseOrder -->
<g id="node16" class="node">
<title>PurchaseOrder</title>
<polygon fill="white" stroke="black" points="1747.55,-304.5 1747.55,-360.5 1963.54,-360.5 1963.54,-304.5 1747.55,-304.5"/>
<text text-anchor="middle" x="1789.45" y="-329.5" font-family="Helvetica,sans-Serif" font-size="10.00">PurchaseOrder</text>
<polyline fill="none" stroke="black" points="1831.35,-304.5 1831.35,-360.5"/>
<text text-anchor="start" x="1839.35" y="-347.5" font-family="Helvetica,sans-Serif" font-size="10.00">PK po_id:int</text>
<text text-anchor="start" x="1839.35" y="-335.5" font-family="Helvetica,sans-Serif" font-size="10.00">FK purchase_indent_id:int</text>
<text text-anchor="start" x="1839.35" y="-323.5" font-family="Helvetica,sans-Serif" font-size="10.00">FK vendor_id:int</text>
<text text-anchor="start" x="1839.35" y="-311.5" font-family="Helvetica,sans-Serif" font-size="10.00">order_date:date</text>
</g>
<!-- VendorMaster&#45;&gt;PurchaseOrder -->
<g id="edge11" class="edge">
<title>VendorMaster-&gt;PurchaseOrder</title>
<path fill="none" stroke="black" d="M1687.54,-357.1C1703.21,-354.79 1719.71,-352.36 1735.98,-349.97"/>
<polygon fill="black" stroke="black" points="1736.32,-353.45 1745.71,-348.53 1735.3,-346.53 1736.32,-353.45"/>
</g>
<!-- UserMaster -->
<g id="node6" class="node">
<title>UserMaster</title>
<polygon fill="white" stroke="black" points="1243.77,-383.5 1243.77,-451.5 1424.72,-451.5 1424.72,-383.5 1243.77,-383.5"/>
<text text-anchor="middle" x="1277.61" y="-414.5" font-family="Helvetica,sans-Serif" font-size="10.00">UserMaster</text>
<polyline fill="none" stroke="black" points="1311.45,-383.5 1311.45,-451.5"/>
<text text-anchor="start" x="1319.45" y="-438.5" font-family="Helvetica,sans-Serif" font-size="10.00">PK user_id:int</text>
<text text-anchor="start" x="1319.45" y="-426.5" font-family="Helvetica,sans-Serif" font-size="10.00">username:string</text>
<text text-anchor="start" x="1319.45" y="-414.5" font-family="Helvetica,sans-Serif" font-size="10.00">password_hash:string</text>
<text text-anchor="start" x="1319.45" y="-402.5" font-family="Helvetica,sans-Serif" font-size="10.00">FK role_id:int</text>
<text text-anchor="start" x="1319.45" y="-390.5" font-family="Helvetica,sans-Serif" font-size="10.00">FK dept_id:int</text>
</g>
<!-- PurchaseApproval -->
<g id="node15" class="node">
<title>PurchaseApproval</title>
<polygon fill="white" stroke="black" points="1480.65,-267.5 1480.65,-323.5 1710.55,-323.5 1710.55,-267.5 1480.65,-267.5"/>
<text text-anchor="middle" x="1529.5" y="-292.5" font-family="Helvetica,sans-Serif" font-size="10.00">PurchaseApproval</text>
<polyline fill="none" stroke="black" points="1578.36,-267.5 1578.36,-323.5"/>
<text text-anchor="start" x="1586.36" y="-310.5" font-family="Helvetica,sans-Serif" font-size="10.00">PK approval_id:int</text>
<text text-anchor="start" x="1586.36" y="-298.5" font-family="Helvetica,sans-Serif" font-size="10.00">FK purchase_indent_id:int</text>
<text text-anchor="start" x="1586.36" y="-286.5" font-family="Helvetica,sans-Serif" font-size="10.00">FK user_id:int</text>
<text text-anchor="start" x="1586.36" y="-274.5" font-family="Helvetica,sans-Serif" font-size="10.00">approved:boolean</text>
</g>
<!-- UserMaster&#45;&gt;PurchaseApproval -->
<g id="edge19" class="edge">
<title>UserMaster-&gt;PurchaseApproval</title>
<path fill="none" stroke="black" d="M1388.76,-383.1C1415.65,-366.73 1449.14,-347.68 1480.65,-333.5 1484.7,-331.67 1488.87,-329.89 1493.11,-328.15"/>
<polygon fill="black" stroke="black" points="1494.35,-331.43 1502.35,-324.49 1491.77,-324.92 1494.35,-331.43"/>
</g>
<!-- RoleMaster -->
<g id="node7" class="node">
<title>RoleMaster</title>
<polygon fill="white" stroke="black" points="1006.86,-434.5 1006.86,-478.5 1164.47,-478.5 1164.47,-434.5 1006.86,-434.5"/>
<text text-anchor="middle" x="1040.43" y="-453.5" font-family="Helvetica,sans-Serif" font-size="10.00">RoleMaster</text>
<polyline fill="none" stroke="black" points="1073.99,-434.5 1073.99,-478.5"/>
<text text-anchor="start" x="1081.99" y="-465.5" font-family="Helvetica,sans-Serif" font-size="10.00">PK role_id:int</text>
<text text-anchor="start" x="1081.99" y="-453.5" font-family="Helvetica,sans-Serif" font-size="10.00">role_name:string</text>
<text text-anchor="start" x="1081.99" y="-441.5" font-family="Helvetica,sans-Serif" font-size="10.00">permissions:text</text>
</g>
<!-- RoleMaster&#45;&gt;UserMaster -->
<g id="edge20" class="edge">
<title>RoleMaster-&gt;UserMaster</title>
<path fill="none" stroke="black" d="M1164.69,-444.16C1186.17,-440.76 1209.79,-437.03 1232.36,-433.46"/>
<polygon fill="black" stroke="black" points="1232.88,-436.92 1242.21,-431.9 1231.78,-430 1232.88,-436.92"/>
</g>
<!-- ProjectMaster -->
<g id="node8" class="node">
<title>ProjectMaster</title>
<polygon fill="white" stroke="black" points="474.5,-245.5 474.5,-313.5 656.01,-313.5 656.01,-245.5 474.5,-245.5"/>
<text text-anchor="middle" x="513.35" y="-276.5" font-family="Helvetica,sans-Serif" font-size="10.00">ProjectMaster</text>
<polyline fill="none" stroke="black" points="552.19,-245.5 552.19,-313.5"/>
<text text-anchor="start" x="560.19" y="-300.5" font-family="Helvetica,sans-Serif" font-size="10.00">PK project_id:int</text>
<text text-anchor="start" x="560.19" y="-288.5" font-family="Helvetica,sans-Serif" font-size="10.00">project_name:string</text>
<text text-anchor="start" x="560.19" y="-276.5" font-family="Helvetica,sans-Serif" font-size="10.00">FK customer_id:int</text>
<text text-anchor="start" x="560.19" y="-264.5" font-family="Helvetica,sans-Serif" font-size="10.00">start_date:date</text>
<text text-anchor="start" x="560.19" y="-252.5" font-family="Helvetica,sans-Serif" font-size="10.00">end_date:date</text>
</g>
<!-- AssemblyOrder -->
<g id="node11" class="node">
<title>AssemblyOrder</title>
<polygon fill="white" stroke="black" points="737.48,-251.5 737.48,-307.5 923.42,-307.5 923.42,-251.5 737.48,-251.5"/>
<text text-anchor="middle" x="779.93" y="-276.5" font-family="Helvetica,sans-Serif" font-size="10.00">AssemblyOrder</text>
<polyline fill="none" stroke="black" points="822.38,-251.5 822.38,-307.5"/>
<text text-anchor="start" x="830.38" y="-294.5" font-family="Helvetica,sans-Serif" font-size="10.00">PK assembly_id:int</text>
<text text-anchor="start" x="830.38" y="-282.5" font-family="Helvetica,sans-Serif" font-size="10.00">FK oc_id:int</text>
<text text-anchor="start" x="830.38" y="-270.5" font-family="Helvetica,sans-Serif" font-size="10.00">FK dept_id:int</text>
<text text-anchor="start" x="830.38" y="-258.5" font-family="Helvetica,sans-Serif" font-size="10.00">status:string</text>
</g>
<!-- ProjectMaster&#45;&gt;AssemblyOrder -->
<g id="edge21" class="edge">
<title>ProjectMaster-&gt;AssemblyOrder</title>
<path fill="none" stroke="black" d="M656.47,-279.5C678.74,-279.5 702.78,-279.5 725.65,-279.5"/>
<polygon fill="black" stroke="black" points="725.61,-283 735.61,-279.5 725.61,-276 725.61,-283"/>
</g>
<!-- OrderConfirmation -->
<g id="node10" class="node">
<title>OrderConfirmation</title>
<polygon fill="white" stroke="black" points="469.5,-119.5 469.5,-175.5 661.01,-175.5 661.01,-119.5 469.5,-119.5"/>
<text text-anchor="middle" x="518.63" y="-144.5" font-family="Helvetica,sans-Serif" font-size="10.00">OrderConfirmation</text>
<polyline fill="none" stroke="black" points="567.75,-119.5 567.75,-175.5"/>
<text text-anchor="start" x="575.75" y="-162.5" font-family="Helvetica,sans-Serif" font-size="10.00">PK oc_id:int</text>
<text text-anchor="start" x="575.75" y="-150.5" font-family="Helvetica,sans-Serif" font-size="10.00">FK enquiry_id:int</text>
<text text-anchor="start" x="575.75" y="-138.5" font-family="Helvetica,sans-Serif" font-size="10.00">oc_number:string</text>
<text text-anchor="start" x="575.75" y="-126.5" font-family="Helvetica,sans-Serif" font-size="10.00">date:date</text>
</g>
<!-- Enquiry&#45;&gt;OrderConfirmation -->
<g id="edge2" class="edge">
<title>Enquiry-&gt;OrderConfirmation</title>
<path fill="none" stroke="black" d="M396.33,-147.5C415.78,-147.5 437.15,-147.5 457.95,-147.5"/>
<polygon fill="black" stroke="black" points="457.91,-151 467.91,-147.5 457.91,-144 457.91,-151"/>
<text text-anchor="middle" x="424.6" y="-151.7" font-family="Times,serif" font-size="14.00">1..*</text>
</g>
<!-- OrderConfirmation&#45;&gt;AssemblyOrder -->
<g id="edge3" class="edge">
<title>OrderConfirmation-&gt;AssemblyOrder</title>
<path fill="none" stroke="black" d="M623.04,-175.98C664.03,-196.54 719.53,-224.37 762.65,-246"/>
<polygon fill="black" stroke="black" points="760.91,-249.04 771.41,-250.39 764.05,-242.78 760.91,-249.04"/>
<text text-anchor="middle" x="705.91" y="-225.6" font-family="Times,serif" font-size="14.00">1..*</text>
</g>
<!-- DispatchRecord -->
<g id="node22" class="node">
<title>DispatchRecord</title>
<polygon fill="white" stroke="black" points="736.62,-75.5 736.62,-131.5 924.28,-131.5 924.28,-75.5 736.62,-75.5"/>
<text text-anchor="middle" x="780.2" y="-100.5" font-family="Helvetica,sans-Serif" font-size="10.00">DispatchRecord</text>
<polyline fill="none" stroke="black" points="823.77,-75.5 823.77,-131.5"/>
<text text-anchor="start" x="831.77" y="-118.5" font-family="Helvetica,sans-Serif" font-size="10.00">PK dispatch_id:int</text>
<text text-anchor="start" x="831.77" y="-106.5" font-family="Helvetica,sans-Serif" font-size="10.00">FK oc_id:int</text>
<text text-anchor="start" x="831.77" y="-94.5" font-family="Helvetica,sans-Serif" font-size="10.00">dispatch_date:date</text>
<text text-anchor="start" x="831.77" y="-82.5" font-family="Helvetica,sans-Serif" font-size="10.00">status:string</text>
</g>
<!-- OrderConfirmation&#45;&gt;DispatchRecord -->
<g id="edge17" class="edge">
<title>OrderConfirmation-&gt;DispatchRecord</title>
<path fill="none" stroke="black" d="M661.28,-131.61C682,-128.15 704.03,-124.47 725.09,-120.95"/>
<polygon fill="black" stroke="black" points="725.56,-124.42 734.84,-119.32 724.4,-117.51 725.56,-124.42"/>
</g>
<!-- AssemblyOrder&#45;&gt;SubDeptTask -->
<g id="edge4" class="edge">
<title>AssemblyOrder-&gt;SubDeptTask</title>
<path fill="none" stroke="black" d="M875.5,-251.07C905.4,-232.29 946.14,-207.7 983.49,-188.5 986.54,-186.93 989.67,-185.37 992.83,-183.81"/>
<polygon fill="black" stroke="black" points="994.2,-187.04 1001.69,-179.55 991.17,-180.73 994.2,-187.04"/>
<text text-anchor="middle" x="954.99" y="-213.56" font-family="Times,serif" font-size="14.00">1..*</text>
</g>
<!-- ProductionDeadline -->
<g id="node19" class="node">
<title>ProductionDeadline</title>
<polygon fill="white" stroke="black" points="983.49,-371.5 983.49,-415.5 1187.85,-415.5 1187.85,-371.5 983.49,-371.5"/>
<text text-anchor="middle" x="1035.13" y="-390.5" font-family="Helvetica,sans-Serif" font-size="10.00">ProductionDeadline</text>
<polyline fill="none" stroke="black" points="1086.77,-371.5 1086.77,-415.5"/>
<text text-anchor="start" x="1094.77" y="-402.5" font-family="Helvetica,sans-Serif" font-size="10.00">PK deadline_id:int</text>
<text text-anchor="start" x="1094.77" y="-390.5" font-family="Helvetica,sans-Serif" font-size="10.00">FK assembly_id:int</text>
<text text-anchor="start" x="1094.77" y="-378.5" font-family="Helvetica,sans-Serif" font-size="10.00">deadline_date:date</text>
</g>
<!-- AssemblyOrder&#45;&gt;ProductionDeadline -->
<g id="edge14" class="edge">
<title>AssemblyOrder-&gt;ProductionDeadline</title>
<path fill="none" stroke="black" d="M877.49,-307.82C907.03,-325.18 946.63,-346.98 983.49,-362.5 987.27,-364.09 991.16,-365.64 995.11,-367.14"/>
<polygon fill="black" stroke="black" points="993.66,-370.34 1004.25,-370.49 996.06,-363.77 993.66,-370.34"/>
</g>
<!-- QCChecklist -->
<g id="node20" class="node">
<title>QCChecklist</title>
<polygon fill="white" stroke="black" points="999.65,-284.5 999.65,-352.5 1171.69,-352.5 1171.69,-284.5 999.65,-284.5"/>
<text text-anchor="middle" x="1035.43" y="-315.5" font-family="Helvetica,sans-Serif" font-size="10.00">QCChecklist</text>
<polyline fill="none" stroke="black" points="1071.21,-284.5 1071.21,-352.5"/>
<text text-anchor="start" x="1079.21" y="-339.5" font-family="Helvetica,sans-Serif" font-size="10.00">PK qc_id:int</text>
<text text-anchor="start" x="1079.21" y="-327.5" font-family="Helvetica,sans-Serif" font-size="10.00">FK assembly_id:int</text>
<text text-anchor="start" x="1079.21" y="-315.5" font-family="Helvetica,sans-Serif" font-size="10.00">FK dept_id:int</text>
<text text-anchor="start" x="1079.21" y="-303.5" font-family="Helvetica,sans-Serif" font-size="10.00">checklist_data:text</text>
<text text-anchor="start" x="1079.21" y="-291.5" font-family="Helvetica,sans-Serif" font-size="10.00">status:string</text>
</g>
<!-- AssemblyOrder&#45;&gt;QCChecklist -->
<g id="edge15" class="edge">
<title>AssemblyOrder-&gt;QCChecklist</title>
<path fill="none" stroke="black" d="M923.59,-293.69C944.56,-296.92 966.9,-300.36 988.06,-303.62"/>
<polygon fill="black" stroke="black" points="987.43,-307.06 997.84,-305.13 988.49,-300.15 987.43,-307.06"/>
</g>
<!-- TelemetryReport -->
<g id="node21" class="node">
<title>TelemetryReport</title>
<polygon fill="white" stroke="black" points="990.2,-197.5 990.2,-265.5 1181.14,-265.5 1181.14,-197.5 990.2,-197.5"/>
<text text-anchor="middle" x="1035.43" y="-228.5" font-family="Helvetica,sans-Serif" font-size="10.00">TelemetryReport</text>
<polyline fill="none" stroke="black" points="1080.66,-197.5 1080.66,-265.5"/>
<text text-anchor="start" x="1088.66" y="-252.5" font-family="Helvetica,sans-Serif" font-size="10.00">PK telemetry_id:int</text>
<text text-anchor="start" x="1088.66" y="-240.5" font-family="Helvetica,sans-Serif" font-size="10.00">FK assembly_id:int</text>
<text text-anchor="start" x="1088.66" y="-228.5" font-family="Helvetica,sans-Serif" font-size="10.00">FK dept_id:int</text>
<text text-anchor="start" x="1088.66" y="-216.5" font-family="Helvetica,sans-Serif" font-size="10.00">expected:text</text>
<text text-anchor="start" x="1088.66" y="-204.5" font-family="Helvetica,sans-Serif" font-size="10.00">actual:text</text>
</g>
<!-- AssemblyOrder&#45;&gt;TelemetryReport -->
<g id="edge16" class="edge">
<title>AssemblyOrder-&gt;TelemetryReport</title>
<path fill="none" stroke="black" d="M923.59,-262.04C941.59,-258.62 960.59,-255.02 979,-251.53"/>
<polygon fill="black" stroke="black" points="979.39,-255.02 988.57,-249.72 978.09,-248.14 979.39,-255.02"/>
</g>
<!-- SnagReport -->
<g id="node23" class="node">
<title>SnagReport</title>
<polygon fill="white" stroke="black" points="1000.75,-497.5 1000.75,-577.5 1170.59,-577.5 1170.59,-497.5 1000.75,-497.5"/>
<text text-anchor="middle" x="1035.43" y="-534.5" font-family="Helvetica,sans-Serif" font-size="10.00">SnagReport</text>
<polyline fill="none" stroke="black" points="1070.12,-497.5 1070.12,-577.5"/>
<text text-anchor="start" x="1078.12" y="-564.5" font-family="Helvetica,sans-Serif" font-size="10.00">PK snag_id:int</text>
<text text-anchor="start" x="1078.12" y="-552.5" font-family="Helvetica,sans-Serif" font-size="10.00">FK assembly_id:int</text>
<text text-anchor="start" x="1078.12" y="-540.5" font-family="Helvetica,sans-Serif" font-size="10.00">reported_by:int</text>
<text text-anchor="start" x="1078.12" y="-528.5" font-family="Helvetica,sans-Serif" font-size="10.00">reported_to:int</text>
<text text-anchor="start" x="1078.12" y="-516.5" font-family="Helvetica,sans-Serif" font-size="10.00">snag_details:text</text>
<text text-anchor="start" x="1078.12" y="-504.5" font-family="Helvetica,sans-Serif" font-size="10.00">status:string</text>
</g>
<!-- AssemblyOrder&#45;&gt;SnagReport -->
<g id="edge18" class="edge">
<title>AssemblyOrder-&gt;SnagReport</title>
<path fill="none" stroke="black" d="M846.12,-307.94C869.87,-351.66 920.5,-435.83 983.49,-488.5 985.86,-490.49 988.33,-492.41 990.88,-494.28"/>
<polygon fill="black" stroke="black" points="988.89,-497.16 999.12,-499.94 992.85,-491.39 988.89,-497.16"/>
</g>
<!-- PurchaseIndent -->
<g id="node14" class="node">
<title>PurchaseIndent</title>
<polygon fill="white" stroke="black" points="1224.85,-218.5 1224.85,-286.5 1443.65,-286.5 1443.65,-218.5 1224.85,-218.5"/>
<text text-anchor="middle" x="1267.87" y="-249.5" font-family="Helvetica,sans-Serif" font-size="10.00">PurchaseIndent</text>
<polyline fill="none" stroke="black" points="1310.9,-218.5 1310.9,-286.5"/>
<text text-anchor="start" x="1318.9" y="-273.5" font-family="Helvetica,sans-Serif" font-size="10.00">PK purchase_indent_id:int</text>
<text text-anchor="start" x="1318.9" y="-261.5" font-family="Helvetica,sans-Serif" font-size="10.00">FK item_id:int</text>
<text text-anchor="start" x="1318.9" y="-249.5" font-family="Helvetica,sans-Serif" font-size="10.00">quantity:int</text>
<text text-anchor="start" x="1318.9" y="-237.5" font-family="Helvetica,sans-Serif" font-size="10.00">reason:text</text>
<text text-anchor="start" x="1318.9" y="-225.5" font-family="Helvetica,sans-Serif" font-size="10.00">status:string</text>
</g>
<!-- StockIndent&#45;&gt;PurchaseIndent -->
<g id="edge8" class="edge">
<title>StockIndent-&gt;PurchaseIndent</title>
<path fill="none" stroke="black" d="M1163.56,-87.05C1172.02,-91.43 1180.3,-96.25 1187.85,-101.5 1231.47,-131.81 1272.61,-176.64 1299.93,-209.58"/>
<polygon fill="black" stroke="black" points="1296.91,-211.42 1305.95,-216.94 1302.32,-206.99 1296.91,-211.42"/>
</g>
<!-- PurchaseIndent&#45;&gt;PurchaseApproval -->
<g id="edge9" class="edge">
<title>PurchaseIndent-&gt;PurchaseApproval</title>
<path fill="none" stroke="black" d="M1444.11,-270.55C1452.3,-271.91 1460.61,-273.29 1468.9,-274.66"/>
<polygon fill="black" stroke="black" points="1468.25,-278.1 1478.68,-276.28 1469.39,-271.19 1468.25,-278.1"/>
</g>
<!-- PurchaseApproval&#45;&gt;PurchaseOrder -->
<g id="edge10" class="edge">
<title>PurchaseApproval-&gt;PurchaseOrder</title>
<path fill="none" stroke="black" d="M1710.86,-311.89C1719.2,-313.09 1727.62,-314.29 1735.98,-315.49"/>
<polygon fill="black" stroke="black" points="1735.44,-318.95 1745.84,-316.91 1736.44,-312.02 1735.44,-318.95"/>
</g>
<!-- GRN -->
<g id="node17" class="node">
<title>GRN</title>
<polygon fill="white" stroke="black" points="2000.54,-304.5 2000.54,-360.5 2139.83,-360.5 2139.83,-304.5 2000.54,-304.5"/>
<text text-anchor="middle" x="2019.65" y="-329.5" font-family="Helvetica,sans-Serif" font-size="10.00">GRN</text>
<polyline fill="none" stroke="black" points="2038.76,-304.5 2038.76,-360.5"/>
<text text-anchor="start" x="2046.76" y="-347.5" font-family="Helvetica,sans-Serif" font-size="10.00">PK grn_id:int</text>
<text text-anchor="start" x="2046.76" y="-335.5" font-family="Helvetica,sans-Serif" font-size="10.00">FK po_id:int</text>
<text text-anchor="start" x="2046.76" y="-323.5" font-family="Helvetica,sans-Serif" font-size="10.00">received_date:date</text>
<text text-anchor="start" x="2046.76" y="-311.5" font-family="Helvetica,sans-Serif" font-size="10.00">verified:boolean</text>
</g>
<!-- PurchaseOrder&#45;&gt;GRN -->
<g id="edge12" class="edge">
<title>PurchaseOrder-&gt;GRN</title>
<path fill="none" stroke="black" d="M1963.8,-332.5C1972.22,-332.5 1980.63,-332.5 1988.82,-332.5"/>
<polygon fill="black" stroke="black" points="1988.72,-336 1998.72,-332.5 1988.72,-329 1988.72,-336"/>
</g>
<!-- StoreTransaction -->
<g id="node18" class="node">
<title>StoreTransaction</title>
<polygon fill="white" stroke="black" points="2176.83,-298.5 2176.83,-366.5 2350.01,-366.5 2350.01,-298.5 2176.83,-298.5"/>
<text text-anchor="middle" x="2222.9" y="-329.5" font-family="Helvetica,sans-Serif" font-size="10.00">StoreTransaction</text>
<polyline fill="none" stroke="black" points="2268.97,-298.5 2268.97,-366.5"/>
<text text-anchor="start" x="2276.97" y="-353.5" font-family="Helvetica,sans-Serif" font-size="10.00">PK txn_id:int</text>
<text text-anchor="start" x="2276.97" y="-341.5" font-family="Helvetica,sans-Serif" font-size="10.00">FK item_id:int</text>
<text text-anchor="start" x="2276.97" y="-329.5" font-family="Helvetica,sans-Serif" font-size="10.00">quantity:int</text>
<text text-anchor="start" x="2276.97" y="-317.5" font-family="Helvetica,sans-Serif" font-size="10.00">txn_type:string</text>
<text text-anchor="start" x="2276.97" y="-305.5" font-family="Helvetica,sans-Serif" font-size="10.00">date:date</text>
</g>
<!-- GRN&#45;&gt;StoreTransaction -->
<g id="edge13" class="edge">
<title>GRN-&gt;StoreTransaction</title>
<path fill="none" stroke="black" d="M2140.22,-332.5C2148.31,-332.5 2156.68,-332.5 2165.06,-332.5"/>
<polygon fill="black" stroke="black" points="2164.97,-336 2174.97,-332.5 2164.97,-329 2164.97,-336"/>
</g>
</g>
</svg>